<?xml version="1.0" encoding="UTF-8"?><svg id="b" xmlns="http://www.w3.org/2000/svg" viewBox="0 0 1896.83 535.15"><defs><style>.d{fill:#e50012;}.e{fill:#231815;}</style></defs><g id="c"><g><path class="e" d="M1889.22,4.01h-363.43c-.6,42.43-6.21,85.65-11.4,129.08h24.42c11.81-45.83,26.21-53.83,76.85-53.83h25.02V368.64c0,29.82-17.81,33.22-36.22,33.22v25.02c33.22-2,66.44-4.01,100.46-4.01s69.04,2,103.47,4.01v-25.02c-22.01,0-38.03-6.6-38.03-33.22V79.25h27.42c47.43,0,66.44,11.4,75.45,53.83h23.61c-4.61-42.23-6.21-86.25-7.6-129.08h0Zm-1232.19,0H293.59c-.6,42.43-6,85.65-11.61,129.08h24.42c11.81-45.83,26.21-53.83,76.85-53.83h25.02V368.64c0,29.82-17.81,33.22-36.43,33.22v25.02c33.42-2,66.65-4.01,100.46-4.01s69.04,2,103.47,4.01v-25.02c-22.01,0-38.03-6.6-38.03-33.22V79.25h27.42c47.43,0,66.44,11.4,75.45,53.83h23.61c-4.2-42.23-5.61-86.25-7.21-129.08h.02ZM5.4,521.13c-2.41-4.61-5.4-9.01-5.4-9.01,85.46-28.82,94.66-78.85,94.66-120.48V74.04c0-41.62-18.61-49.03-38.42-49.03V0c28.82,2,64.84,4.01,102.66,4.01S224.94,2,254.96,0V25.02c-14.41,0-29.42,2.6-29.42,27.82V340.22c0,116.87-92.06,169.91-214.94,194.93,0,0-2.2-7.81-5.2-14.01h0Zm1033.07-225.35c-2.41,45.63-25.82,59.64-63.04,59.64h-114.08V67.44h115.27c34.83,0,49.23,26.42,50.43,50.83h19.21c-1.2-28.42-3-57.44-4.8-89.86V4.01h-340.62V29.22c13.21,0,29.42,2.6,29.42,27.62V370.04c0,25.21-16.21,27.62-29.42,27.62v25.21h350.23c1.8-42.43,6-84.65,9.01-126.88h-21.62v-.2h0Z"/><path class="d" d="M1090.71,205.73s-114.67,40.02-256.37,40.02-256.37-40.02-256.37-40.02c0,0,114.67-40.02,256.37-40.02,141.69-.2,256.37,40.02,256.37,40.02Z"/><path class="e" d="M1478.55,359.43c-30.82-62.64-66.84-136.49-94.46-190.93l77.05-117.07c17.81-21.81,27.22-26.42,48.23-26.42V0c-31.42,2.6-54.64,4.01-76.65,4.01-30.42,0-70.45-2-100.87-4.01V25.02c11.81,0,23.82,5.4,23.82,19.21s-4.61,33.02-103.26,155.3h-1.4V52.83c0-25.21,14.81-27.82,29.22-27.82V0c-29.82,2.6-59.44,4.01-95.26,4.01-32.03,0-64.25-2-92.66-4.01V25.02c13.01,0,29.22,2.6,29.22,27.82V373.84c0,25.02-16.01,27.82-29.22,27.82v25.02c28.62-2,60.64-4.01,92.66-4.01,35.62,0,65.44,2,95.26,4.01v-25.02c-14.41,0-29.22-2.8-29.22-27.82V203.53h1.4c37.82,68.04,79.45,154.9,107.47,223.14,36.43-3.6,59.64-4.01,90.66-4.01,26.62,0,48.43,1.2,81.06,4.01v-25.02c-23.61,0-41.43-18.81-53.04-42.23h0Z"/></g></g></svg>