<?xml version="1.0" encoding="UTF-8"?><svg id="b" xmlns="http://www.w3.org/2000/svg" viewBox="0 0 882.08 334.39"><defs><style>.d{fill-rule:evenodd;}</style></defs><g id="c"><path class="d" d="M8.85,334.37q-10,0-7.35-6.9L74.93,148.79c-11.52,0-35.03,0-31.91-6.5,12.4-29.39,14.38-29.39,14.89-29.39h111.22c5.34,0,5.17,5.03,4.05,11.05,5.85-2.62,86.72-36.59,101.59,5.33,4.34-2.39,26.59-10.34,27.99-11.37,21.94-6.26,105.11-26.06,85.92,18.95l-64.56,159.28c-3.49,5.62,14.95,3.94,24.76,3.94l-13.23,27.39q-3.05,6.9-12.28,6.9h-81.19c-8.82,0-18.31-11.54-15.67-21.46l64.86-152.85c3.4-11.27-18.11-11.27-23-.82l-69.65,168.24c-2.68,6.9-2.71,6.9-7.61,6.9H115.33c-5.67,0-5.69,0-3.31-6.9l67.57-167.78c4.4-10.92-17.09-10.92-22.17,0l-70.57,167.78c-3.07,6.9-3.03,6.9-9.44,6.9H8.85s0-.01,0-.01Zm680.81-2.24c-33.22-.35-60.97,1.04-66.55-36.46,0-49.58,34.28-94.19,78.51-113.11,24.4-7.89,49.7-6.85,75.59-7.78,8.82-.8,14.62-21.14,9.86-25.89-15.55-7.78-91.14,6.16-93.58-3.72,1.04-8,7.78-31.01,17.43-32.52,48.05-.58,97.3-1.04,146.52-1.04,34.5,3.94,26.6,36.34,13.37,60.15-12.67,35.76-27.41,71.53-41.83,107.17-2.08,6.04-5.21,11.84-5.8,18.69,6.86,5.81,21.37-.8,29.84,3.39,.93,4.63-7.31,27.51-12.18,29.95-51.1,.58-101.02,1.05-151.19,1.17h0Zm30.3-32.87c-7.2-2.19-6.25-3.36-6.61-8.82,9.3-23.81,21.02-73.85,41.57-85.22,14.51-2.91,15.1-2.56,10.21,12.31-10.66,24.97-20.54,51.44-31.59,76.99-3.68,6.51-6.47,4.51-13.57,4.75h0ZM552.99,53.12c-3.96,29.32-28.52,53.11-54.85,53.11s-44.43-23.79-40.45-53.11c3.97-29.34,28.52-53.12,54.86-53.12,26.33,.01,44.42,23.8,40.44,53.12h0Zm-48.81,281.25q-25.56,0-13.4-34.3l61.61-151.29h-23c-3.27,0-3.45,0-2.18-4.44l7.98-28.99q1.09-2.45,4.86-2.45h27.53l20.47-54.94,102.9-24.8-29,79.74h27.72q6.03,0,3.59,6.16l-9.6,27.2q-1.32,2.53-6.28,2.53h-26.42q-3.93,0-6.03,2.68l-58.84,144.42c-1.85,4.19,2.87,4.19-1.85,4.19h30.35l-14.21,34.3h-96.2s0-.01,0-.01Zm-144.11,0c-16.28,0-16.1,0-12.96-6.9l72.75-178.68c-12.9,0-24.45,0-18.42-13.71,4.19-5.21,4.64-19.16,9.6-22.18h113.67q3.5,0,1.14,6.03l-69.65,175.55c-3.33,5.6,14.53,5.6,24.73,5.6l-9.81,27.39c-2.56,6.9-2.76,6.9-14.72,6.9h-96.34Z"/></g></svg>