<?xml version="1.0" encoding="UTF-8"?><svg id="b" xmlns="http://www.w3.org/2000/svg" viewBox="0 0 2393.45 503.75"><defs><style>.d{fill:#c82e37;fill-rule:evenodd;}</style></defs><g id="c"><path class="d" d="M1786.06,300.09c0-25.28-15.69-50.62-45.8-56.64v-1.21c24.11-8.44,40.96-31.33,40.96-55.44,0-40.98-31.33-62.68-86.76-62.68-32.53,0-66.28,0-87.96,1.2v251.89c32.53,0,60.25,1.2,75.91,1.2,78.33,.01,103.65-42.18,103.65-78.32h.01Zm-57.86-106.06c0,22.91-16.88,36.15-51.85,36.15h-19.26v-66.28c8.43,0,18.06-1.21,28.91-1.21,31.33,.01,42.19,13.26,42.19,31.33h.01Zm4.82,107.26c0,22.91-16.86,37.37-49.42,37.37-10.86,0-20.49-1.2-26.49-1.2v-71.13h21.68c32.52,0,54.23,9.66,54.23,34.96h0Zm236.2,75.94c-1.2-14.46-1.2-32.56-1.2-47v-78.33c0-39.78-18.06-63.88-78.33-63.88-25.28,0-49.42,4.82-68.7,10.84l4.83,40.98c15.67-9.64,38.57-14.46,55.43-14.46,27.71,0,37.34,9.64,37.34,28.93v9.66c-65.06,0-109.68,24.11-109.68,68.68,0,30.14,19.29,48.23,54.23,48.23,28.94,0,51.82-14.46,61.48-34.95-1.2,9.63-2.43,20.49-2.43,31.33h47.02s0-.03,0-.03Zm-50.62-77.14c0,21.7-16.86,44.57-40.96,44.57-13.25,0-21.7-7.2-21.7-19.26,0-15.69,10.86-30.14,62.68-30.14v4.82h-.01Zm260.32,77.14V247.06c0-32.53-13.25-59.05-56.63-59.05-31.33,0-53.05,15.67-65.08,37.36,2.43-10.84,2.43-25.31,2.43-33.75h-45.8v185.59h48.2v-89.19c0-32.55,20.49-60.26,44.61-60.26,18.06,0,24.11,12.05,24.11,31.35v118.1h48.19s-.01,.01-.01,.01Zm214.52,0l-71.11-100.05,66.28-85.56h-60.26l-55.44,77.12V104.86h-48.2V377.23h48.2v-91.62l59.05,91.62h61.48ZM830.36,247.06c0-87.97-54.23-126.55-125.34-126.55-74.71,0-134.97,51.82-134.97,133.76s40.96,127.76,125.33,127.76c74.73,.01,134.99-51.81,134.99-134.97h-.01Zm-66.28,4.83c0,56.63-34.95,77.1-65.08,77.1-43.39,0-62.68-30.11-62.68-79.53s31.33-75.93,63.87-75.93c40.98,0,63.88,26.51,63.88,78.35h0Zm286.83,119.3l-7.23-51.82c-13.26,4.82-33.75,8.43-48.21,8.43-49.4,0-71.11-27.71-71.11-77.14,0-45.78,24.11-74.71,68.69-74.71,16.87,0,33.75,2.42,49.4,7.23l7.23-53.03c-16.86-4.82-37.36-6.02-55.43-6.02-90.39,0-138.59,54.23-138.59,136.19,0,57.86,27.71,120.52,127.75,120.52,22.91,0,47.01-3.62,67.5-9.66h0Zm239.84-72.32c0-25.32-16.88-49.42-44.61-55.44v-1.21c24.11-9.64,39.76-31.33,39.76-54.23,0-42.18-34.95-63.87-94-63.87-33.75,0-74.71,0-100.03,1.2v251.89c39.76,0,69.9,1.2,86.76,1.2,79.55,0,112.09-39.76,112.09-79.53h.01Zm-71.09-102.44c0,19.29-15.69,30.13-45.81,30.13h-18.07v-55.44h25.31c26.5,0,38.58,9.64,38.58,25.32h0Zm3.58,103.64c0,19.29-15.67,31.33-43.38,31.33-9.64,0-19.29-1.2-24.11-1.2v-60.27h20.49c28.94,0,47,9.66,47,30.14Zm289.26,71.11l-7.23-51.82c-13.28,4.82-33.76,8.43-47,8.43-49.42,0-71.13-27.71-71.13-77.14,0-45.78,24.12-74.71,67.51-74.71,16.86,0,33.74,2.42,49.39,7.23l7.23-53.03c-16.86-4.82-36.14-6.02-55.43-6.02-90.39,0-138.58,54.23-138.58,136.19,0,57.86,27.71,120.52,127.73,120.52,24.11,0,48.23-3.62,67.51-9.66h.01ZM154.27,172.34L49.43,102.45c16.87-22.91,37.36-43.39,61.46-59.05l90.39,92.8c-18.08,8.42-34.96,20.47-47,36.14h0Zm-27.74,66.28L7.23,192.83c7.23-28.93,18.08-55.44,33.75-79.53l107.26,66.28c-12.04,16.87-19.27,37.36-21.69,59.05h-.01Zm143.43,54.22l-128.95-49.4c3.73-19.7,11.98-38.26,24.11-54.23l104.85,66.28v37.36h0Zm0-43.39l-100.03-66.28c12.05-14.46,27.73-25.31,45.8-32.53l54.23,54.23v44.58h-.01ZM14.47,335.04C4.8,308.39-.09,280.24,0,251.89,0,235.01,1.2,219.34,4.82,203.67l121.72,43.39v4.82c0,28.91,9.64,56.63,27.73,78.33h1.2c-11.05-19.48-16.85-41.49-16.87-63.88,0-4.82,0-9.63,1.2-14.45l130.16,45.77v37.37H14.47v.02Zm8.44,22.92c-1.21-4.82-3.62-9.66-6.02-14.46H92.81l13.26,14.46h112.08l-24.11,25.28H55.44c-3.62-13.24-16.87-24.09-32.53-25.28Zm286.83,6.01c8.51-4.92,16.57-10.56,24.11-16.86,4.82-3.62,9.64-8.43,13.25-13.25,19.29-22.91,31.33-50.62,31.33-81.95,0-69.88-56.64-126.54-126.52-126.55h-.03c-14.46,0-28.93,2.42-40.98,7.23L122.93,34.95C162.09,12.18,206.57,.13,251.88,0c138.61-.49,251.39,111.48,251.88,250.11v1.79c0,138.58-112.08,251.86-251.88,251.86-68.69,0-131.37-27.71-177.16-73.51H383.23l2.42-2.39-325.39-13.28-2.42-2.39H402.53l1.2-2.43-360.34-16.86-1.21-1.23H181.99s71.09,2.43,127.75-27.71h0v.02Z"/></g></svg>