<?xml version="1.0" encoding="UTF-8"?><svg id="b" xmlns="http://www.w3.org/2000/svg" xmlns:xlink="http://www.w3.org/1999/xlink" viewBox="0 0 266.06 226.15"><defs><style>.p{fill:url(#j);}.q{fill:url(#m);}.r{fill:url(#i);}.s{fill:url(#l);}.t{fill:url(#f);}.u{fill:url(#g);}.v{fill:url(#n);}.w{fill:url(#e);}.x{fill:url(#o);}.y{fill:none;}</style><radialGradient id="e" cx="89.58" cy="114.57" fx="89.58" fy="114.57" r="19.44" gradientUnits="userSpaceOnUse"><stop offset=".17" stop-color="#ffec7a"/><stop offset=".35" stop-color="#e7b846"/><stop offset=".61" stop-color="#ce9728"/><stop offset=".94" stop-color="#ffe173"/></radialGradient><linearGradient id="f" x1="61.35" y1="151.28" x2="108.38" y2="50.95" gradientUnits="userSpaceOnUse"><stop offset="0" stop-color="#ce9728"/><stop offset=".13" stop-color="#865b11"/><stop offset=".29" stop-color="#e7b846"/><stop offset=".47" stop-color="#ffec7a"/><stop offset=".64" stop-color="#e7b846"/><stop offset=".77" stop-color="#ce9728"/><stop offset=".9" stop-color="#ffe173"/><stop offset=".99" stop-color="#f2b93a"/></linearGradient><linearGradient id="g" x1="157.87" y1="104.78" x2="63.17" y2="140.85" gradientUnits="userSpaceOnUse"><stop offset=".21" stop-color="#969696"/><stop offset=".83" stop-color="#b5b5b5"/></linearGradient><radialGradient id="i" cx="176.34" fx="176.34" r="19.23" xlink:href="#e"/><linearGradient id="j" x1="228.63" y1="113.48" x2="69.11" y2="155.1" xlink:href="#f"/><radialGradient id="l" cx="132.75" cy="39.4" fx="132.75" fy="39.4" r="19.12" xlink:href="#e"/><linearGradient id="m" x1="101.41" y1="64.04" x2="213.05" y2="121.42" gradientUnits="userSpaceOnUse"><stop offset=".45" stop-color="#969696"/><stop offset=".67" stop-color="#b5b5b5"/></linearGradient><linearGradient id="n" x1="91.25" y1="108.73" x2="144.12" y2="4.9" gradientUnits="userSpaceOnUse"><stop offset=".18" stop-color="#969696"/><stop offset=".7" stop-color="#b5b5b5"/></linearGradient><linearGradient id="o" x1="97.52" y1="49.77" x2="228.49" y2="4.79" gradientUnits="userSpaceOnUse"><stop offset="0" stop-color="#ce9728"/><stop offset=".15" stop-color="#865b11"/><stop offset=".35" stop-color="#e7b846"/><stop offset=".49" stop-color="#ffec7a"/><stop offset=".64" stop-color="#e7b846"/><stop offset=".77" stop-color="#ce9728"/><stop offset=".9" stop-color="#ffe173"/><stop offset=".99" stop-color="#f2b93a"/></linearGradient></defs><g id="c"><g id="d"><path class="y" d="M101.98,114.58c0,6.84-5.55,12.39-12.39,12.39s-12.4-5.55-12.4-12.39,5.55-12.4,12.4-12.4,12.39,5.55,12.39,12.4Z"/><path class="y" d="M133.18,86.62c-.08,.1-.15,.2-.22,.31-.07-.1-.14-.2-.21-.3,.14,0,.29,0,.43,0Z"/><path class="y" d="M130.47,91.2c-.05,.1-.1,.19-.14,.29-.06-.1-.12-.21-.18-.31,.11,0,.22,.01,.32,.02Z"/><path class="y" d="M101.98,114.58c0,6.84-5.55,12.39-12.39,12.39s-12.4-5.55-12.4-12.39,5.55-12.4,12.4-12.4,12.39,5.55,12.39,12.4Z"/><path class="y" d="M135.79,91.14c-.07,.11-.13,.22-.2,.34-.04-.1-.1-.21-.15-.31,.12,0,.24-.01,.36-.03Z"/><path class="y" d="M130.47,91.2c-.05,.1-.1,.19-.14,.29-.06-.1-.12-.21-.18-.31,.11,0,.22,.01,.32,.02Z"/><path class="y" d="M101.98,114.58c0,6.84-5.55,12.39-12.39,12.39s-12.4-5.55-12.4-12.39,5.55-12.4,12.4-12.4,12.39,5.55,12.39,12.4Z"/><path class="y" d="M101.98,114.58c0,6.84-5.55,12.39-12.39,12.39s-12.4-5.55-12.4-12.39,5.55-12.4,12.4-12.4,12.39,5.55,12.39,12.4Z"/><path class="y" d="M49.21,96.69c-.71,3.38-1.1,6.87-1.14,10.46,0-.25,0-.51,0-.76,0-3.34,.4-6.59,1.15-9.69Z"/><path class="w" d="M101.98,114.58c0,6.84-5.55,12.39-12.39,12.39s-12.4-5.55-12.4-12.39,5.55-12.4,12.4-12.4,12.39,5.55,12.39,12.4Z"/><path class="t" d="M103.52,145.15c-4.43,1.62-9.21,2.51-14.19,2.51-22.54,0-40.85-18.06-41.26-40.5,.04-3.58,.43-7.08,1.14-10.46,3.23-15.36,12.98-28.32,26.24-35.82,.25,2.13,.62,4.21,1.09,6.26,.84,3.62,2.01,7.11,3.49,10.44-9.34,6.8-15.42,17.81-15.42,30.24,0,20.63,16.73,37.37,37.37,37.37,.52,0,1.04-.01,1.55-.03Z"/><path class="u" d="M180.24,79.44c-.08,.15-.15,.3-.24,.45-4.7,8.54-11.65,15.66-20.04,20.57-1.39,.82-2.83,1.57-4.3,2.27,.16,1.68,.24,3.37,.24,5.09v.07c-.01,10.41-2.98,20.14-8.11,28.38-.82,1.32-1.69,2.6-2.62,3.84-2.03,2.71-4.3,5.21-6.8,7.5-1.7,1.56-3.5,3.01-5.39,4.33-1.32,.93-2.69,1.81-4.09,2.62-7.92,4.56-17.1,7.17-26.89,7.17-29.77,0-53.91-24.14-53.91-53.91,0-.22,0-.44,0-.66,.41,22.44,18.72,40.5,41.26,40.5,4.98,0,9.76-.88,14.19-2.51,4.65-.19,9.08-1.22,13.15-2.97,1.41-.6,2.78-1.29,4.09-2.06,3.3-1.91,6.27-4.33,8.83-7.12,1.22-1.34,2.34-2.77,3.37-4.28,.98-1.45,1.85-2.97,2.62-4.56,1.81-3.72,3.03-7.8,3.51-12.09,.16-1.39,.24-2.81,.24-4.25,0-.13,0-.27,0-.4-.05-4.88-1.03-9.53-2.78-13.79-.3-.73-.62-1.44-.97-2.14,.07-.12,.13-.23,.2-.34,1.13-.08,2.24-.22,3.34-.41,4.4-.76,8.55-2.29,12.28-4.44,1.33-.77,2.61-1.62,3.83-2.55,1.13-.85,2.2-1.76,3.22-2.72h0c.63-.61,1.24-1.22,1.82-1.86,1.16-1.27,2.24-2.62,3.23-4.05,.15,0,.29,0,.43,0,1.11,0,2.2,.06,3.29,.16,4.7,.47,9.11,1.94,13,4.18Z"/></g><g id="h"><path class="y" d="M188.73,114.58c0,6.84-5.55,12.39-12.39,12.39s-12.39-5.55-12.39-12.39,5.54-12.4,12.39-12.4,12.39,5.55,12.39,12.4Z"/><path class="y" d="M133.18,86.62c-.08,.1-.15,.2-.22,.31-.07-.1-.14-.2-.21-.3,.14,0,.29,0,.43,0Z"/><path class="y" d="M130.47,91.2c-.05,.1-.1,.19-.14,.29-.06-.1-.12-.21-.18-.31,.11,0,.22,.01,.32,.02Z"/><path class="y" d="M135.79,91.14c-.07,.11-.13,.22-.2,.34-.04-.1-.1-.21-.15-.31,.12,0,.24-.01,.36-.03Z"/><path class="y" d="M188.73,114.58c0,6.84-5.55,12.39-12.39,12.39s-12.39-5.55-12.39-12.39,5.54-12.4,12.39-12.4,12.39,5.55,12.39,12.4Z"/><path class="y" d="M135.79,91.14c-.07,.11-.13,.22-.2,.34-.04-.1-.1-.21-.15-.31,.12,0,.24-.01,.36-.03Z"/><path class="y" d="M188.73,114.58c0,6.84-5.55,12.39-12.39,12.39s-12.39-5.55-12.39-12.39,5.54-12.4,12.39-12.4,12.39,5.55,12.39,12.4Z"/><path class="y" d="M188.73,114.58c0,6.84-5.55,12.39-12.39,12.39s-12.39-5.55-12.39-12.39,5.54-12.4,12.39-12.4,12.39,5.55,12.39,12.4Z"/><path class="y" d="M185.94,157.05c-1.13,.52-2.28,.99-3.46,1.41,1.18-.43,2.33-.9,3.46-1.41Z"/><path class="r" d="M188.73,114.58c0,6.84-5.55,12.39-12.39,12.39s-12.39-5.55-12.39-12.39,5.54-12.4,12.39-12.4,12.39,5.55,12.39,12.4Z"/><path class="p" d="M209.9,119.58c0,16.38-9.54,30.53-23.37,37.2-.2,.09-.39,.18-.59,.27-1.13,.5-2.29,.97-3.46,1.41-.28,.1-.57,.2-.85,.3-5.54,1.92-11.48,2.97-17.68,2.97-9.79,0-18.97-2.61-26.89-7.17,1.58-1.18,3.1-2.45,4.55-3.79,2.82-2.6,5.38-5.48,7.64-8.59,4.51,1.94,9.48,3.01,14.7,3.01,20.63,0,37.36-16.73,37.36-37.37,0-6.95-1.9-13.46-5.21-19.03,8.47,7.55,13.8,18.55,13.8,30.79Z"/></g><g id="k"><circle class="y" cx="132.75" cy="39.4" r="12.39"/><path class="y" d="M130.15,91.18c.06,.1,.12,.2,.18,.31,.04-.1,.09-.19,.14-.29-.1,0-.21-.01-.32-.02Zm5.28,0c.06,.1,.11,.21,.15,.31,.07-.12,.13-.23,.2-.34-.12,.01-.24,.02-.36,.03Zm-2.68-4.55c.07,.1,.14,.2,.21,.3,.07-.1,.14-.21,.22-.31-.14,0-.29,0-.43,0Zm0-59.61c-6.84,0-12.39,5.55-12.39,12.39s5.55,12.39,12.39,12.39,12.39-5.55,12.39-12.39-5.55-12.39-12.39-12.39Z"/><path class="y" d="M132.75,86.62c.07,.1,.14,.2,.21,.3,.07-.1,.14-.21,.22-.31-.14,0-.29,0-.43,0Zm0-59.61c-6.84,0-12.39,5.55-12.39,12.39s5.55,12.39,12.39,12.39,12.39-5.55,12.39-12.39-5.55-12.39-12.39-12.39Z"/><circle class="y" cx="132.75" cy="39.4" r="12.39"/><path class="y" d="M167.88,13.01c-1.51-1.3-3.1-2.52-4.75-3.65,1.67,1.1,3.26,2.32,4.75,3.65Z"/><circle class="s" cx="132.75" cy="39.4" r="12.39"/><path class="q" d="M217.85,107.81c0,21.71-12.83,40.42-31.32,48.96,13.83-6.67,23.37-20.82,23.37-37.2,0-12.25-5.33-23.24-13.8-30.79-2.44-4.12-5.65-7.73-9.44-10.64-1.39-1.06-2.86-2.04-4.39-2.9-3.35-1.89-7.01-3.28-10.89-4.06-1.69-.34-3.41-.56-5.17-.66-.75-.05-1.5-.07-2.27-.07-1.02,0-2.04,.04-3.04,.13h0c-4.11,.33-8.03,1.32-11.65,2.88-1.41,.6-2.79,1.29-4.1,2.06-4.07,2.37-7.66,5.5-10.56,9.18-.49,.62-.96,1.26-1.41,1.91-.14,0-.29,0-.43,0-.63-.92-1.3-1.8-2-2.65-2.8-3.37-6.18-6.24-9.98-8.45-1.32-.77-2.68-1.46-4.09-2.06-1.57-.68-3.2-1.25-4.88-1.7-.73-.2-1.46-.37-2.2-.52-1.64-.34-3.31-.57-5.01-.69h0c-.59-1.01-1.14-2.05-1.63-3.13-1.86-4.11-2.9-8.67-2.91-13.47,.14-.01,.27-.01,.41-.01,.51-.02,1.02-.03,1.53-.03,9.79,0,18.97,2.61,26.89,7.17,1.41,.81,2.77,1.69,4.09,2.62,1.32-.93,2.69-1.81,4.09-2.62,7.92-4.56,17.1-7.17,26.89-7.17,.51,0,1.02,0,1.53,.03,1.56,.03,3.11,.15,4.63,.32h0c3.35,.38,6.59,1.06,9.73,2.03,2.27,.7,4.48,1.54,6.61,2.53,1.71,.78,3.37,1.66,4.98,2.62,15.82,9.39,26.43,26.65,26.43,46.39Z"/><path class="v" d="M95.63,49.73c-.16,1.37-.24,2.76-.24,4.18,0,.13,0,.27,0,.4,.03,4.05,.73,7.95,1.97,11.6,.54,1.6,1.19,3.16,1.94,4.65,.78,1.58,1.69,3.11,2.69,4.55,2.34,3.42,5.26,6.42,8.59,8.87,1.22,.91,2.51,1.74,3.84,2.49h0c4,2.26,8.44,3.8,13.18,4.45,.84,.11,1.69,.2,2.54,.26,.06,.1,.12,.2,.18,.31-.52,1.06-.99,2.13-1.4,3.25h0c-1.48,3.97-2.31,8.25-2.34,12.72,0,.12,0,.24,0,.36,0,1.4,.08,2.79,.23,4.14,.15,1.41,.39,2.81,.7,4.18,.27,1.15,.58,2.29,.95,3.4,.52,1.59,1.15,3.12,1.87,4.61-.66,1.16-1.4,2.27-2.2,3.33-2.68,3.57-6.08,6.57-9.98,8.79-.04-.06-.09-.13-.13-.21-5.06-8.21-7.98-17.88-7.98-28.24,0-.13,0-.24,0-.37,0-1.53,.08-3.04,.22-4.53-1.48-.68-2.91-1.42-4.31-2.23-8.66-4.97-15.8-12.28-20.58-21.06-.74-1.36-1.43-2.76-2.05-4.19-1.29-2.97-2.34-6.09-3.08-9.32-.54-2.32-.93-4.7-1.15-7.13-.15-1.6-.23-3.21-.23-4.85,0-.08,0-.16,0-.24C78.84,24.13,102.98,0,132.75,0c11.27,0,21.72,3.46,30.37,9.36-6.5-4.28-14.28-6.77-22.65-6.77-20.11,0-36.87,14.39-40.53,33.44h0c-2.27,4.16-3.77,8.78-4.31,13.7Z"/><path class="x" d="M186.66,53.9v.06c-1.86-.78-3.77-1.47-5.71-2.06-3.56-1.08-7.26-1.83-11.08-2.22-2.1-18.64-17.92-33.13-37.12-33.13-14.16,0-26.48,7.87-32.81,19.48,3.66-19.05,20.42-33.44,40.53-33.44,8.37,0,16.15,2.49,22.65,6.77,1.65,1.13,3.24,2.34,4.75,3.65,.11,.1,.22,.2,.34,.3,11.31,9.88,18.45,24.4,18.45,40.59Z"/></g><g><path d="M10.22,174.61c1.12,0,2.11,.17,2.96,.49,.86,.33,1.57,.78,2.15,1.36s1.01,1.24,1.31,2c.3,.76,.44,1.57,.44,2.44s-.15,1.68-.44,2.44c-.3,.76-.73,1.43-1.31,2s-1.29,1.03-2.15,1.36c-.86,.33-1.84,.49-2.96,.49H6v4.2H2.06v-16.78H10.22Zm-.02,8.98c.43,0,.83-.07,1.19-.22,.36-.14,.67-.34,.92-.58,.26-.24,.46-.52,.6-.85,.14-.33,.22-.68,.22-1.04s-.07-.72-.22-1.04c-.14-.33-.34-.62-.6-.86-.26-.25-.56-.44-.92-.59-.36-.14-.76-.22-1.19-.22H6v5.4h4.2Z"/><path d="M33.79,174.61v3.65h-5.64v13.13h-3.94v-13.13h-5.64v-3.65h15.22Z"/><path d="M37.85,191.84c-.67,0-1.24-.23-1.69-.68-.46-.46-.68-1.01-.68-1.67,0-.32,.06-.62,.18-.91,.12-.29,.29-.54,.5-.76,.22-.22,.47-.39,.76-.52s.6-.19,.94-.19,.65,.06,.94,.19,.54,.3,.76,.52c.22,.22,.39,.47,.52,.76,.13,.29,.19,.59,.19,.91s-.06,.62-.19,.91c-.13,.29-.3,.54-.52,.76-.22,.22-.47,.38-.76,.5s-.6,.18-.94,.18Z"/><path d="M66.86,191.39h-3.91l-1.39-3.48h-7.58l-1.39,3.48h-3.94l6.72-16.78h4.8l6.7,16.78Zm-6.67-6.89l-2.42-6.07-2.45,6.07h4.87Z"/><path d="M88.13,174.61v16.78h-3.94v-9.96l-4.27,6.38h-2.57l-4.27-6.38v9.96h-3.94v-16.78h3.58l5.93,8.83,5.9-8.83h3.58Z"/><path d="M92.5,191.39v-16.78h3.94v16.78h-3.94Z"/><path d="M107.9,174.61c1.42,0,2.69,.22,3.79,.66,1.1,.44,2.04,1.04,2.8,1.8,.76,.76,1.34,1.65,1.74,2.68,.4,1.02,.6,2.11,.6,3.26s-.2,2.24-.6,3.26c-.4,1.02-.98,1.91-1.74,2.66-.76,.75-1.69,1.35-2.8,1.79-1.1,.44-2.37,.66-3.79,.66h-7.1v-16.78h7.1Zm-.14,13.13c.86,0,1.62-.12,2.26-.37s1.17-.58,1.6-1.01c.42-.42,.74-.92,.94-1.5,.2-.58,.3-1.19,.3-1.85s-.1-1.27-.3-1.85c-.2-.58-.51-1.08-.94-1.51-.42-.43-.96-.77-1.6-1.02s-1.39-.37-2.26-.37h-3.02v9.48h3.02Z"/><path d="M127.89,174.06c1.28,0,2.47,.23,3.56,.7,1.1,.46,2.04,1.1,2.84,1.91,.8,.81,1.43,1.75,1.88,2.82,.46,1.07,.68,2.22,.68,3.46s-.23,2.37-.68,3.46c-.46,1.09-1.08,2.03-1.88,2.83-.8,.8-1.75,1.44-2.84,1.91-1.1,.47-2.28,.71-3.56,.71s-2.47-.24-3.56-.71c-1.1-.47-2.04-1.11-2.84-1.91-.8-.8-1.43-1.74-1.88-2.83-.46-1.09-.68-2.24-.68-3.46s.23-2.38,.68-3.46c.46-1.07,1.08-2.01,1.88-2.82,.8-.81,1.75-1.44,2.84-1.91,1.1-.46,2.28-.7,3.56-.7Zm0,14.14c.74,0,1.42-.14,2.04-.43s1.16-.68,1.61-1.16c.45-.49,.8-1.05,1.04-1.68,.25-.63,.37-1.29,.37-1.98s-.12-1.35-.37-1.98c-.25-.63-.6-1.19-1.04-1.67-.45-.48-.98-.86-1.61-1.15s-1.3-.43-2.04-.43-1.42,.14-2.04,.43-1.16,.67-1.61,1.15c-.45,.48-.8,1.04-1.04,1.67s-.37,1.29-.37,1.98,.12,1.35,.37,1.98,.6,1.19,1.04,1.68c.45,.49,.98,.88,1.61,1.16s1.3,.43,2.04,.43Z"/><path d="M166.22,174.61v16.78h-3.94v-9.96l-4.27,6.38h-2.57l-4.27-6.38v9.96h-3.94v-16.78h3.58l5.93,8.83,5.9-8.83h3.58Z"/><path d="M186.69,191.39h-3.91l-1.39-3.48h-7.58l-1.39,3.48h-3.94l6.72-16.78h4.8l6.7,16.78Zm-6.67-6.89l-2.42-6.07-2.45,6.07h4.87Z"/><path d="M205.34,191.39h-4.94l-5.69-6.41-1.78,1.9v4.51h-3.94v-16.78h3.94v7.06l6.7-7.06h4.9l-7.27,7.68,8.09,9.1Z"/><path d="M225.81,174.61v16.78h-3.94v-9.96l-4.27,6.38h-2.57l-4.27-6.38v9.96h-3.94v-16.78h3.58l5.93,8.83,5.9-8.83h3.58Z"/><path d="M237.69,174.06c1.28,0,2.47,.23,3.56,.7s2.04,1.1,2.84,1.91c.8,.81,1.43,1.75,1.88,2.82,.46,1.07,.68,2.22,.68,3.46s-.23,2.37-.68,3.46c-.46,1.09-1.08,2.03-1.88,2.83-.8,.8-1.75,1.44-2.84,1.91s-2.28,.71-3.56,.71-2.47-.24-3.56-.71-2.04-1.11-2.84-1.91c-.8-.8-1.43-1.74-1.88-2.83-.46-1.09-.68-2.24-.68-3.46s.23-2.38,.68-3.46c.46-1.07,1.08-2.01,1.88-2.82,.8-.81,1.75-1.44,2.84-1.91s2.28-.7,3.56-.7Zm0,14.14c.74,0,1.42-.14,2.04-.43s1.16-.68,1.61-1.16c.45-.49,.8-1.05,1.04-1.68s.37-1.29,.37-1.98-.12-1.35-.37-1.98-.6-1.19-1.04-1.67c-.45-.48-.98-.86-1.61-1.15s-1.3-.43-2.04-.43-1.42,.14-2.04,.43-1.16,.67-1.61,1.15c-.45,.48-.8,1.04-1.04,1.67s-.37,1.29-.37,1.98,.12,1.35,.37,1.98,.6,1.19,1.04,1.68c.45,.49,.98,.88,1.61,1.16s1.3,.43,2.04,.43Z"/><path d="M265.6,191.39h-4.61l-3.86-5.16h-3.55v5.16h-3.94v-16.78h8.81c.94,0,1.8,.15,2.57,.46,.77,.3,1.42,.72,1.97,1.25,.54,.53,.96,1.14,1.26,1.85,.3,.7,.44,1.46,.44,2.26,0,1.15-.3,2.2-.9,3.13-.6,.94-1.43,1.64-2.48,2.1l4.3,5.74Zm-7.46-8.81c.88,0,1.53-.21,1.96-.62s.64-.93,.64-1.54-.21-1.12-.64-1.55-1.08-.64-1.96-.64h-4.56v4.34h4.56Z"/></g><g><path d="M54.47,203.49v3.65h-5.64v13.13h-3.94v-13.13h-5.64v-3.65h15.22Z"/><path d="M73.57,203.44v8.95c0,1.23-.19,2.36-.56,3.38-.38,1.02-.91,1.9-1.61,2.63-.7,.73-1.55,1.3-2.56,1.7-1.01,.41-2.14,.61-3.41,.61s-2.4-.2-3.41-.61-1.86-.98-2.56-1.7c-.7-.73-1.23-1.6-1.6-2.63-.37-1.02-.55-2.15-.55-3.38v-8.95h3.94v9.14c0,.58,.08,1.13,.25,1.67s.42,1.01,.77,1.43c.34,.42,.78,.75,1.31,1.01,.53,.26,1.14,.38,1.85,.38s1.32-.13,1.85-.38c.53-.26,.97-.59,1.32-1.01,.35-.42,.61-.89,.78-1.43s.25-1.09,.25-1.67v-9.14h3.94Z"/><path d="M89.75,216.62v3.65h-12.19v-16.78h3.94v13.13h8.26Z"/><path d="M108.18,203.44v8.95c0,1.23-.19,2.36-.56,3.38-.38,1.02-.91,1.9-1.61,2.63-.7,.73-1.55,1.3-2.56,1.7-1.01,.41-2.14,.61-3.41,.61s-2.4-.2-3.41-.61-1.86-.98-2.56-1.7c-.7-.73-1.23-1.6-1.6-2.63-.37-1.02-.55-2.15-.55-3.38v-8.95h3.94v9.14c0,.58,.08,1.13,.25,1.67s.42,1.01,.77,1.43c.34,.42,.78,.75,1.31,1.01,.53,.26,1.14,.38,1.85,.38s1.32-.13,1.85-.38c.53-.26,.97-.59,1.32-1.01,.35-.42,.61-.89,.78-1.43s.25-1.09,.25-1.67v-9.14h3.94Z"/><path d="M115.38,208.03c0,.4,.25,.73,.76,.98s1.13,.49,1.88,.71c.75,.22,1.56,.45,2.44,.71,.87,.26,1.68,.6,2.44,1.02,.75,.42,1.38,.96,1.88,1.6s.76,1.46,.76,2.45c0,.93-.2,1.72-.59,2.38-.39,.66-.92,1.19-1.57,1.6-.66,.41-1.42,.71-2.29,.9-.87,.19-1.79,.29-2.75,.29-1.31,0-2.6-.15-3.86-.44-1.26-.3-2.47-.76-3.62-1.38l1.51-3.34c.91,.43,1.9,.79,2.95,1.08,1.06,.29,2.06,.43,3.02,.43,.61,0,1.11-.05,1.5-.14,.39-.1,.7-.22,.92-.36,.22-.14,.38-.31,.47-.49s.13-.36,.13-.52c0-.5-.25-.88-.76-1.15-.5-.27-1.13-.51-1.88-.72-.75-.21-1.56-.43-2.44-.66-.87-.23-1.68-.55-2.44-.95-.75-.4-1.38-.93-1.88-1.58s-.76-1.51-.76-2.57c0-.75,.18-1.42,.53-2,.35-.58,.85-1.08,1.49-1.48,.64-.4,1.4-.7,2.27-.91s1.84-.31,2.89-.31c1.17,0,2.32,.12,3.46,.36,1.14,.24,2.22,.63,3.26,1.18l-1.42,3.17c-.86-.4-1.76-.7-2.7-.91-.94-.21-1.8-.31-2.6-.31-.38,0-.76,.02-1.12,.06-.36,.04-.68,.11-.96,.22-.28,.1-.5,.24-.67,.42-.17,.18-.25,.41-.25,.7Z"/><path d="M140.1,208.03c0,.4,.25,.73,.76,.98s1.13,.49,1.88,.71,1.56,.45,2.44,.71c.87,.26,1.68,.6,2.44,1.02,.75,.42,1.38,.96,1.88,1.6s.76,1.46,.76,2.45c0,.93-.2,1.72-.59,2.38-.39,.66-.92,1.19-1.57,1.6-.66,.41-1.42,.71-2.29,.9-.87,.19-1.79,.29-2.75,.29-1.31,0-2.6-.15-3.86-.44-1.26-.3-2.47-.76-3.62-1.38l1.51-3.34c.91,.43,1.9,.79,2.95,1.08s2.06,.43,3.02,.43c.61,0,1.11-.05,1.5-.14,.39-.1,.7-.22,.92-.36,.22-.14,.38-.31,.47-.49s.13-.36,.13-.52c0-.5-.25-.88-.76-1.15s-1.13-.51-1.88-.72c-.75-.21-1.56-.43-2.44-.66-.87-.23-1.68-.55-2.44-.95-.75-.4-1.38-.93-1.88-1.58s-.76-1.51-.76-2.57c0-.75,.18-1.42,.53-2s.85-1.08,1.49-1.48c.64-.4,1.4-.7,2.27-.91s1.84-.31,2.89-.31c1.17,0,2.32,.12,3.46,.36,1.14,.24,2.22,.63,3.26,1.18l-1.42,3.17c-.86-.4-1.76-.7-2.7-.91-.94-.21-1.8-.31-2.6-.31-.38,0-.76,.02-1.12,.06-.36,.04-.68,.11-.96,.22-.28,.1-.5,.24-.67,.42-.17,.18-.25,.41-.25,.7Z"/><path d="M157.98,206.99v3.12h8.18v3.5h-8.18v3.14h9.98v3.5h-13.92v-16.78h13.92v3.5h-9.98Z"/><path d="M183.44,203.44v9.98c0,1.1-.16,2.11-.48,3.01-.32,.9-.79,1.67-1.42,2.3-.62,.63-1.39,1.12-2.3,1.46-.91,.34-1.96,.52-3.14,.52s-2.35-.32-3.49-.96c-1.14-.64-2.12-1.49-2.94-2.54l3.02-2.16c.54,.59,1.11,1.08,1.7,1.45s1.19,.56,1.8,.56c1.01,0,1.81-.31,2.41-.92,.6-.62,.9-1.53,.9-2.75v-9.96h3.94Z"/><path d="M203.17,220.27h-3.91l-1.39-3.48h-7.58l-1.39,3.48h-3.94l6.72-16.78h4.8l6.7,16.78Zm-6.67-6.89l-2.42-6.07-2.45,6.07h4.87Z"/><path d="M218.12,203.49v3.65h-5.64v13.13h-3.94v-13.13h-5.64v-3.65h15.22Z"/><path d="M221.36,220.27v-16.78h3.94v16.78h-3.94Z"/></g></g></svg>