<?xml version="1.0" encoding="UTF-8"?><svg id="b" xmlns="http://www.w3.org/2000/svg" viewBox="0 0 2420.06 498.19"><defs><style>.d{fill:#ff1c25;}</style></defs><g id="c"><g><path class="d" d="M680.93,248.99c-2.81,19.31-5.66,38.62-8.37,57.98-5.9,42.2-11.57,84.5-17.76,126.66-2.76,18.83,1.06,35.33,13.99,49.51,.44,.48,.53,1.26,1.11,2.61-8.03,3.29-16.36,1.21-24.39,1.6-8.37,.34-16.79,.19-25.17,0-8.23-.15-16.55,.77-26.52-1.06,14.91-13.26,19.79-29.76,22.75-47.14,1.06-6.19,1.74-12.49,2.57-18.68,8.81-63.69,17.57-127.38,26.47-191.07,1.55-10.99-.34-20.86-7.79-29.33-1.16-1.31-2.37-2.61-3.29-4.07-1.74-2.95-.53-4.65,2.61-5.03,2.08-.24,4.16-.24,6.29-.29,18.54-.1,37.07,.24,55.61-.39,8.47-.29,12.58,3.19,15.68,10.6,13.5,31.89,27.39,63.59,41.14,95.34,14.47,33.35,28.89,66.74,43.41,100.09,.97,2.18,1.4,4.79,4.07,6.1,3.48-1.31,3.44-4.84,4.45-7.6,24.01-64.18,47.91-128.4,71.87-192.62,4.36-11.71,4.4-11.76,16.36-11.81,19.26-.05,38.48-.05,57.69,0,3,0,6.29-.97,8.95,1.36-.1,.73,0,1.65-.34,1.98-13.12,11.95-14.33,26.72-11.95,43.27,6.39,44.62,11.91,89.39,17.81,134.06,2.95,22.51,5.81,45.06,8.91,67.56,1.11,7.99,3,15.78,6.1,23.28,1.74,4.21,3.78,8.28,6.63,11.86,7.79,9.87,10.6,10.12,18.49,.58,11.23-13.55,20.09-28.6,26.52-45.01,25.75-65.39,51.3-130.87,77.29-196.16,5.66-14.23,8.18-27.54-3.44-39.44,1.02-3.39,3.39-3.1,5.37-3.1,18.54-.15,37.07,0,55.61-.39,6.97-.15,9.82,3.58,12.15,9.24,14.13,34.27,28.46,68.43,42.74,102.65,19.65,47.09,39.3,94.23,59.09,141.27,5.52,13.12,14.18,24.01,24.34,33.83,2.66,2.57,6.15,4.5,7.99,9.24h-88.66c-.34-1.98,.44-2.71,1.26-3.34,11.13-8.52,12.78-13.45,7.7-26.86-7.94-20.91-16.21-41.72-24.54-62.48-9.1-22.65-5.08-19.41-29.18-19.55-24.83-.15-49.66-.1-74.48,0-10.5,0-10.99,.24-14.57,9.92-7.65,20.67-14.76,41.53-22.8,62-5.23,13.31-2.81,24.54,6.29,34.89,.87,1.02,1.6,2.23,2.18,3.15-.68,3.34-3.1,3-5.03,3h-156.33c-.97,0-1.98-.48-3.87-1.02,17.13-15,16.84-34.02,14.33-53.96-6.78-54.45-13.16-108.94-19.75-163.39-.73-6.15-1.79-12.24-2.86-19.41-4.5,3.39-5.13,7.65-6.58,11.33-25.26,63.69-50.43,127.43-75.6,191.17-4.11,10.41-7.99,20.91-12.29,31.22-3.15,7.6-4.74,7.99-11.37,2.71-15.15-11.95-26.28-26.96-33.83-44.62-25.84-60.45-51.79-120.85-77.68-181.25-1.65-3.82-3.48-7.55-5.23-11.33-.73,.1-1.45,.19-2.18,.24l.05,.1Zm467.72-9.29c-2.37,1.89-2.95,3.97-3.73,5.9-7.74,20.23-15.49,40.46-23.23,60.74-3.48,9.15-7.21,18.2-10.45,27.44-2.23,6.39-1.4,7.55,5.23,7.7,10.5,.24,20.96,.1,31.46,.1,11.57,0,23.09,.15,34.6-.1,5.61-.1,6.24-1.21,4.84-6.24-.39-1.36-1.02-2.61-1.5-3.92-10.65-27.34-21.25-54.74-31.99-82.08-1.26-3.19-1.89-6.78-5.23-9.53h0Z"/><path class="d" d="M1958.44,485.51c-8.13,2.32-71.53,2.71-83.63,.44,15.1-10.74,16.12-26.28,16.12-42.2V238.2c0-6.29-.39-12.54-1.16-18.83-1.4-10.94-5.71-20.04-14.62-26.81-1.11-.82-2.13-1.84-2.18-3.48,1.21-2.95,3.97-2.27,6.24-2.27,32.52-.1,65.05-.77,97.57,0,20.33,.48,40.07,4.98,59.05,12.97,43.03,18.2,50.14,66.45,29.76,99.55-11.37,18.49-27.34,31.56-47.24,40.03-2.23,.97-4.55,1.79-6.82,2.66-2.95,1.11-3.73,3-1.84,5.66,1.21,1.74,2.47,3.39,3.78,5.03,22.12,28.41,43.12,57.69,67.42,84.36,9.24,10.12,19.17,19.41,29.67,28.07,5.81,4.84,7.45,4.6,11.66-1.55,5.52-8.08,10.74-16.41,14.37-25.55,27.88-70.9,55.71-141.85,83.63-212.76,3.78-9.58,2.86-18.25-2.86-26.86-4.31-6.44-3.68-7.6,3.82-7.74,17.47-.24,34.99,.05,52.46-.39,7.16-.19,10.65,2.81,13.21,9.15,10.94,26.86,22.31,53.58,33.54,80.29,22.12,52.9,44.33,105.75,66.31,158.7,6.82,16.5,16.84,30.49,30.3,42.15,.77,.68,1.55,1.4,2.18,2.23,.44,.53,.58,1.26,.87,1.84-.1,.34-.1,.73-.24,1.02s-.39,.73-.63,.73c-26.52,2.03-53.04,.44-79.57,.87-2.71,.05-5.57,.73-8.13-1.21,.1-3.19,3.1-3.39,4.94-4.65,7.5-5.18,9.44-9.97,7.31-18.83-.58-2.37-1.45-4.69-2.32-6.97-9.34-23.76-18.92-47.38-27.97-71.24-2.71-7.16-6.49-10.41-14.52-10.26-28.65,.44-57.35,.15-86,.19-10.31,0-10.84,.39-14.42,10.12-7.7,21-15.1,42.11-22.94,63.06-4.5,12-2.86,22.55,5.66,32.14,1.55,1.74,4.07,3,3.53,6.24-2.9,2.42-6.49,1.4-9.82,1.45-27.3,.1-54.54-.34-81.84,.15-22.84,.44-40.36-8.42-53.77-26.86-28.36-39.01-57.11-77.78-85.66-116.64-.19-.29-.44-.58-.63-.82-5.32-7.74-5.13-8.91,3.78-11.08,13.36-3.34,25.89-8.52,37.65-15.58,15.83-9.44,26.04-23.13,30.06-41.09,4.89-21.97-5.95-41.57-27.15-49.27-15.44-5.61-31.26-6.68-47.48-3.68-5.57,1.02-7.99,3.58-7.6,9.1,.1,1.74,0,3.48,0,5.23,0,69.93,.05,139.82,0,209.76,0,9.97,1.11,19.65,6.82,28.07,2.61,3.92,6.24,7.16,9.58,10.89l-.24,.05Zm296.2-247.22c-1.94,2.37-2.86,3.05-3.19,3.97-11.86,30.54-23.71,61.08-35.38,91.67-2.42,6.34-1.65,7.45,5.03,7.5,21.25,.15,42.54,.15,63.79,0,8.57-.05,9.39-1.11,6.29-9.2-8.66-22.8-17.67-45.49-26.52-68.24-3.15-8.03-6.29-16.12-10.02-25.75v.05Z"/><path class="d" d="M489.37,340.9v131.11c0,15.1-.15,15.25-15.2,15.25h-202.45c-15.44,0-15.49,0-15.49-14.91,0-34.27-.53-68.53,.19-102.8,.92-40.36,13.31-77.05,39.78-108.07,23.33-27.3,52.85-45.45,86.97-56.19,24.44-7.7,49.41-12.63,75.16-12.78,7.36,0,14.57-1.94,21.97-1.21,7.11,.73,8.37,1.89,8.91,9,.24,3.15,.15,6.29,.15,9.44v131.16Z"/><path class="d" d="M.02,340.12V210.13c0-2.81-.05-5.61,0-8.37,.39-8.76,1.69-10.7,10.65-10.36,16.36,.63,32.77,1.11,49.08,3.39,32.91,4.65,64.13,14.08,92.39,31.94,49.37,31.17,75.16,76.37,79.61,134.26,2.9,37.7,.82,75.45,1.36,113.15,.15,11.95-1.21,13.07-13.36,13.07-68.87,.05-137.69,0-206.51,0-1.74,0-3.48-.1-5.23-.1-5.03,0-7.84-2.32-7.89-7.6,0-3.15-.1-6.29-.1-9.44v-129.95Z"/><path class="d" d="M1686.64,498.19c-42.15-.53-81.26-11.57-115.28-37.56-32.96-25.22-52.27-58.32-56.48-100.09-3.78-37.85,6-71.97,26.62-103.33,9.24-14.08,20.28-26.72,33.15-37.65,21.83-18.54,47.87-26.91,75.65-30.68,22.99-3.15,46.03-2.66,68.82,1.89,47.67,9.49,86.15,32.86,109.28,76.81,30.49,57.84,22.99,124-18.1,173.75-26.86,32.47-61.9,50.43-103.47,55.85-6.53,.87-13.26,.68-20.13,.97l-.05,.05Zm.63-36.69c24.44,0,44.86-6.87,62.38-20.81,29.57-23.57,42.49-55.37,42.2-92-.34-40.22-15.63-74.92-45.88-102.22-43.36-39.11-111.65-32.86-147.13,13.26-20.57,26.76-27.83,57.25-26.43,90.6,2.57,60.88,54.11,111.07,114.9,111.17h-.05Z"/><path class="d" d="M1444.17,188.98c3.78-2.86,6.63-2.18,9.34-2.18,21.68-.15,43.36-.19,65-.29,2.08,0,4.21-.05,6.29,.19,3.39,.39,4.07,2.37,2.47,5.13-1.6,2.71-3.34,5.32-5.13,7.89-33.06,48.11-65.97,96.31-99.22,144.27-5.66,8.13-8.37,16.31-8.18,26.28,.48,25.51,.44,51.01,.05,76.52-.24,15.2,4.89,27.25,17.71,35.77,1.11,.77,2.27,1.6,2.27,3.19-7.36,2.13-72.21,2.61-83.97,.63-.77-1.6,.15-2.76,1.26-3.53,10.41-7.4,13.94-18.29,14.08-30.2,.34-30.06,.1-60.11,.19-90.17,0-4.4-1.55-8.13-3.73-11.76-25.84-42.78-51.59-85.62-77.49-128.35-5.66-9.39-13.65-16.75-22.26-23.42-3.78-2.95-8.28-5.13-11.23-8.76,.77-4.02,3.73-3.24,5.9-3.29,12.92-.19,25.84-.39,38.82-.24,10.6,.1,19.65,4.07,27.1,11.86,5.13,5.32,9.29,11.33,13.07,17.67,17.28,29.14,34.6,58.32,51.93,87.45,.73,1.21,1.36,2.42,2.13,3.63,4.69,7.36,5.52,7.4,10.6,0,17.18-25.07,34.31-50.24,51.4-75.36,1.55-2.32,3.05-4.74,4.16-7.26,4.98-11.13,2.61-22.26-6.44-30.44-1.79-1.6-3.68-3.1-6.05-5.08l-.1-.15Z"/><path class="d" d="M244.87,71.61h-89.05c-1.74,0-3.53,.19-5.23-.05-3.82-.53-9.05,1.74-10.74-3.73-1.36-4.55,5.52-12.73,10.7-13.5,1.36-.19,2.81-.19,4.16-.19h179.12c8.91,0,12.87,3.24,15.2,11.28,.97,3.44-.1,5.52-3.68,5.86-3.1,.29-6.29,.29-9.44,.29h-91.13l.1,.05Z"/><path class="d" d="M244.29,113.86h-99.65c-3.15,0-6.29-.05-9.44-.15-4.11-.15-6.63-1.98-6.58-6.39,0-4.26,1.4-7.65,6.19-8.28,2.42-.34,4.89-.39,7.31-.39h204.53c2.47,0,4.94-.05,7.31,.34,4.6,.82,6.82,4.16,6.58,9.1-.24,4.74-3.39,5.61-7.21,5.66-2.81,0-5.61,.05-8.37,.05h-100.72l.05,.05Z"/><path class="d" d="M242.79,92.81h-95.44c-2.47,0-4.89,.15-7.36-.05-3.24-.24-7.5,.92-7.99-4.36-.44-4.98,3.15-10.16,7.6-10.99,1.69-.29,3.48-.29,5.23-.29h199.25c8.81,0,10.45,1.11,12.15,6.97,1.65,5.66,.34,7.89-5.42,8.52-3.1,.34-6.29,.19-9.44,.19h-98.59Z"/><path class="d" d="M243.85,48.86c-26.91,0-53.82,0-80.73-.05-3.29,0-7.84,1.5-9.53-2.13-1.74-3.73,2.57-5.95,4.65-8.57,4.16-5.32,9.49-7.4,16.41-7.36,46.85,.24,93.7,.34,140.55-.05,10.07-.1,15.25,5.66,20.04,12.73,2.37,3.53,.39,5.13-3.24,5.28-2.81,.15-5.57,.1-8.37,.1h-79.71l-.05,.05Z"/><path class="d" d="M244.62,121.27h100.52c2.81,0,5.57,0,8.37,.05,3.34,.1,6.49,.48,6.49,4.89s-1.16,7.7-6.15,8.13c-2.76,.24-5.57,.29-8.37,.29H143.38c-3.15,0-6.29,0-9.39-.53-4.26-.73-5.32-4.07-5.08-7.89,.19-3.53,2.66-4.65,5.71-4.79,3.15-.15,6.29-.19,9.44-.19h100.52l.05,.05Z"/><path class="d" d="M244.91,142.42h96.51c2.81,0,5.61-.05,8.37,.1s6,0,6.34,3.87c.24,3.34-.97,6.44-4.36,7.6-2.57,.87-5.47,1.16-8.23,1.16-65.72,.05-131.45,.05-197.17,0-3.15,0-6.34,0-9.24-1.4-3.29-1.6-4.45-4.5-3.87-7.84,.53-3,3.29-3.29,5.76-3.44,3.15-.19,6.29-.15,9.44-.15h96.51l-.05,.1Z"/><path class="d" d="M312.82,24.18c-7.45,2.23-125.88,2.66-137.11,.53,21.68-32.67,115.24-33.06,137.11-.53Z"/><path class="d" d="M244.96,163.42h89.05c2.81,0,5.61,0,8.37,.15,2.42,.19,5.32,.24,5.57,3.48,.24,3.05-1.4,5.66-4.21,6.58-2.61,.82-5.47,.97-8.23,.97-60.4,.05-120.8,.05-181.25,0-4.11,0-8.57,.73-11.62-3.19-1.31-1.65-2.57-3.44-1.6-5.71,.82-1.89,2.71-2.03,4.4-2.08,2.81-.15,5.57-.15,8.37-.15h91.13v-.05Z"/><path class="d" d="M245.5,184.23h78.55c1.4,0,2.81-.15,4.16,0,2.57,.39,6.63-1.26,7.16,2.23,.58,3.92-3.05,5.95-6.68,6.68-2.37,.48-4.89,.44-7.31,.44H167.38c-4.11,0-8.52,.73-11.76-2.9-1.16-1.31-2.47-2.66-1.69-4.6,.58-1.45,2.13-1.65,3.48-1.69,2.81-.1,5.57-.15,8.37-.15h79.71Z"/><path class="d" d="M244.09,203.64h56.63c2.08,0,4.21-.15,6.29,.05,2.95,.24,7.79-1.02,8.08,2.57,.39,4.55-4.55,5.32-8.32,6-1.69,.29-3.48,.24-5.23,.24h-114.27c-4.6,0-9.15,0-12.68-3.63-.68-.73-1.5-1.74-1.45-2.61,0-1.6,1.4-2.32,2.86-2.42,2.81-.19,5.57-.24,8.37-.24h59.77l-.05,.05Z"/><path class="d" d="M280,226.87c-23.33,8.03-46.75,8.57-70.32-.97,7.4-2.52,15.1-1.55,22.7-1.74,8.03-.19,16.07,0,24.05,0h23.62v2.71h-.05Z"/></g></g></svg>